{
  "accessors": [
    {
      "bufferView": 2,
      "componentType": 5126,
      "count": 65532,
      "max": [
        10.391721725463867,
        -13.118834495544434,
        3.7590100765228271
      ],
      "min": [
        -8.2863082885742188,
        -23.780355453491211,
        -4.4382386207580566
      ],
      "type": "VEC3"
    },
    {
      "bufferView": 2,
      "byteOffset": 786384,
      "componentType": 5126,
      "count": 65532,
      "max": [
        0.99993842840194702,
        0.99106472730636597,
        0.99992549419403076
      ],
      "min": [
        -0.99998533725738525,
        -0.99999964237213135,
        -0.99999970197677612
      ],
      "type": "VEC3"
    },
    {
      "bufferView": 1,
      "componentType": 5126,
      "count": 65532,
      "max": [
        0.999705970287323,
        0.87170398235321045
      ],
      "min": [
        0.00012199999764561653,
        0.00040300001273863018
      ],
      "type": "VEC2"
    },
    {
      "bufferView": 0,
      "componentType": 5125,
      "count": 307659,
      "max": [
        65531
      ],
      "min": [
        0
      ],
      "type": "SCALAR"
    },
    {
      "bufferView": 2,
      "byteOffset": 1572768,
      "componentType": 5126,
      "count": 65532,
      "max": [
        11.219890594482422,
        -13.155404090881348,
        6.5872611999511719
      ],
      "min": [
        -8.2880973815917969,
        -23.797393798828125,
        -4.4106535911560059
      ],
      "type": "VEC3"
    },
    {
      "bufferView": 2,
      "byteOffset": 2359152,
      "componentType": 5126,
      "count": 65532,
      "max": [
        0.9999966025352478,
        0.99947202205657959,
        0.99999022483825684
      ],
      "min": [
        -0.99993956089019775,
        -0.99999982118606567,
        -0.99991530179977417
      ],
      "type": "VEC3"
    },
    {
      "bufferView": 1,
      "byteOffset": 524256,
      "componentType": 5126,
      "count": 65532,
      "max": [
        0.99972498416900635,
        0.87170398235321045
      ],
      "min": [
        0.00012199999764561653,
        0.00019999999494757503
      ],
      "type": "VEC2"
    },
    {
      "bufferView": 0,
      "byteOffset": 1230636,
      "componentType": 5125,
      "count": 290292,
      "max": [
        65531
      ],
      "min": [
        0
      ],
      "type": "SCALAR"
    },
    {
      "bufferView": 2,
      "byteOffset": 3145536,
      "componentType": 5126,
      "count": 65532,
      "max": [
        10.834831237792969,
        -11.965782165527344,
        6.9464545249938965
      ],
      "min": [
        -7.658790111541748,
        -26.236915588378906,
        -4.4106535911560059
      ],
      "type": "VEC3"
    },
    {
      "bufferView": 2,
      "byteOffset": 3931920,
      "componentType": 5126,
      "count": 65532,
      "max": [
        0.99999916553497314,
        0.99947202205657959,
        0.99999278783798218
      ],
      "min": [
        -0.99996531009674072,
        -0.99999308586120605,
        -0.99999982118606567
      ],
      "type": "VEC3"
    },
    {
      "bufferView": 1,
      "byteOffset": 1048512,
      "componentType": 5126,
      "count": 65532,
      "max": [
        0.99981600046157837,
        0.87170398235321045
      ],
      "min": [
        0.00012199999764561653,
        0.00026999998954124749
      ],
      "type": "VEC2"
    },
    {
      "bufferView": 0,
      "byteOffset": 2391804,
      "componentType": 5125,
      "count": 277179,
      "max": [
        65531
      ],
      "min": [
        0
      ],
      "type": "SCALAR"
    },
    {
      "bufferView": 2,
      "byteOffset": 4718304,
      "componentType": 5126,
      "count": 65533,
      "max": [
        11.131686210632324,
        -11.813896179199219,
        7.0540328025817871
      ],
      "min": [
        -8.2327356338500977,
        -26.093223571777344,
        -4.8415012359619141
      ],
      "type": "VEC3"
    },
    {
      "bufferView": 2,
      "byteOffset": 5504700,
      "componentType": 5126,
      "count": 65533,
      "max": [
        1,
        0.99999517202377319,
        1
      ],
      "min": [
        -0.99999988079071045,
        -0.99999994039535522,
        -0.99999994039535522
      ],
      "type": "VEC3"
    },
    {
      "bufferView": 1,
      "byteOffset": 1572768,
      "componentType": 5126,
      "count": 65533,
      "max": [
        0.99977898597717285,
        0.8719480037689209
      ],
      "min": [
        0.00012199999764561653,
        0.00041599999531172216
      ],
      "type": "VEC2"
    },
    {
      "bufferView": 0,
      "byteOffset": 3500520,
      "componentType": 5125,
      "count": 248205,
      "max": [
        65532
      ],
      "min": [
        0
      ],
      "type": "SCALAR"
    },
    {
      "bufferView": 2,
      "byteOffset": 6291096,
      "componentType": 5126,
      "count": 65532,
      "max": [
        11.215039253234863,
        -11.838784217834473,
        7.0822463035583496
      ],
      "min": [
        -7.9886922836303711,
        -22.709882736206055,
        -4.7669162750244141
      ],
      "type": "VEC3"
    },
    {
      "bufferView": 2,
      "byteOffset": 7077480,
      "componentType": 5126,
      "count": 65532,
      "max": [
        0.99999886751174927,
        0.99997508525848389,
        0.99999964237213135
      ],
      "min": [
        -0.9999992847442627,
        -1,
        -0.99999970197677612
      ],
      "type": "VEC3"
    },
    {
      "bufferView": 1,
      "byteOffset": 2097032,
      "componentType": 5126,
      "count": 65532,
      "max": [
        0.99981200695037842,
        0.8719480037689209
      ],
      "min": [
        0.00012199999764561653,
        0.00037399999564513564
      ],
      "type": "VEC2"
    },
    {
      "bufferView": 0,
      "byteOffset": 4493340,
      "componentType": 5125,
      "count": 244410,
      "max": [
        65531
      ],
      "min": [
        0
      ],
      "type": "SCALAR"
    },
    {
      "bufferView": 2,
      "byteOffset": 7863864,
      "componentType": 5126,
      "count": 65532,
      "max": [
        10.095699310302734,
        -11.820987701416016,
        7.0822463035583496
      ],
      "min": [
        -8.0947999954223633,
        -26.052885055541992,
        -4.8351583480834961
      ],
      "type": "VEC3"
    },
    {
      "bufferView": 2,
      "byteOffset": 8650248,
      "componentType": 5126,
      "count": 65532,
      "max": [
        0.99999707937240601,
        0.99997901916503906,
        0.9999997615814209
      ],
      "min": [
        -0.9999992847442627,
        -0.99999994039535522,
        -0.99999880790710449
      ],
      "type": "VEC3"
    },
    {
      "bufferView": 1,
      "byteOffset": 2621288,
      "componentType": 5126,
      "count": 65532,
      "max": [
        0.9997749924659729,
        0.8719480037689209
      ],
      "min": [
        0.00012199999764561653,
        0.0029780000913888216
      ],
      "type": "VEC2"
    },
    {
      "bufferView": 0,
      "byteOffset": 5470980,
      "componentType": 5125,
      "count": 236430,
      "max": [
        65531
      ],
      "min": [
        0
      ],
      "type": "SCALAR"
    },
    {
      "bufferView": 2,
      "byteOffset": 9436632,
      "componentType": 5126,
      "count": 5612,
      "max": [
        10.073356628417969,
        -11.813892364501953,
        7.0817031860351562
      ],
      "min": [
        -7.269136905670166,
        -21.854948043823242,
        -4.8323516845703125
      ],
      "type": "VEC3"
    },
    {
      "bufferView": 2,
      "byteOffset": 9503976,
      "componentType": 5126,
      "count": 5612,
      "max": [
        0.99999117851257324,
        0.99997603893280029,
        0.99999868869781494
      ],
      "min": [
        -0.99998396635055542,
        -0.99999034404754639,
        -0.99999344348907471
      ],
      "type": "VEC3"
    },
    {
      "bufferView": 1,
      "byteOffset": 3145544,
      "componentType": 5126,
      "count": 5612,
      "max": [
        0.99522697925567627,
        0.87170398235321045
      ],
      "min": [
        0.0054930001497268677,
        0.00028800001018680632
      ],
      "type": "VEC2"
    },
    {
      "bufferView": 0,
      "byteOffset": 6416700,
      "componentType": 5125,
      "count": 15771,
      "max": [
        5611
      ],
      "min": [
        0
      ],
      "type": "SCALAR"
    },
    {
      "bufferView": 2,
      "byteOffset": 9571320,
      "componentType": 5126,
      "count": 27705,
      "max": [
        10.094546318054199,
        -11.813892364501953,
        7.0811433792114258
      ],
      "min": [
        -7.2689886093139648,
        -11.981167793273926,
        -4.8321089744567871
      ],
      "type": "VEC3"
    },
    {
      "bufferView": 2,
      "byteOffset": 9903780,
      "componentType": 5126,
      "count": 27705,
      "max": [
        0.99999737739562988,
        0.99999517202377319,
        0.99999380111694336
      ],
      "min": [
        -0.99997693300247192,
        -0.2805195152759552,
        -0.99999350309371948
      ],
      "type": "VEC3"
    },
    {
      "bufferView": 1,
      "byteOffset": 3190440,
      "componentType": 5126,
      "count": 27705,
      "max": [
        0,
        0
      ],
      "min": [
        0,
        0
      ],
      "type": "VEC2"
    },
    {
      "bufferView": 0,
      "byteOffset": 6479784,
      "componentType": 5125,
      "count": 160368,
      "max": [
        27704
      ],
      "min": [
        0
      ],
      "type": "SCALAR"
    }
  ],
  "asset": {
    "extras": {
      "author": "noe-3d.at (https://sketchfab.com/www.noe-3d.at)",
      "license": "CC-BY-NC-4.0 (http://creativecommons.org/licenses/by-nc/4.0/)",
      "source": "https://sketchfab.com/3d-models/lowe-daf61aa1c8db4b0d974a1c84af852a5d",
      "title": "Löwe"
    },
    "generator": "Sketchfab-10.16.0",
    "version": "2.0"
  },
  "bufferViews": [
    {
      "buffer": 0,
      "byteLength": 7121256,
      "byteOffset": 0,
      "name": "floatBufferViews",
      "target": 34963
    },
    {
      "buffer": 0,
      "byteLength": 3412080,
      "byteOffset": 7121256,
      "byteStride": 8,
      "name": "floatBufferViews",
      "target": 34962
    },
    {
      "buffer": 0,
      "byteLength": 10236240,
      "byteOffset": 10533336,
      "byteStride": 12,
      "name": "floatBufferViews",
      "target": 34962
    }
  ],
  "buffers": [
    {
      "byteLength": 20769576,
      "uri": "scene.bin"
    }
  ],
  "images": [
    {
      "uri": "textures/Loewe_O_Material_u1_v1_baseColor.png"
    }
  ],
  "materials": [
    {
      "doubleSided": true,
      "emissiveFactor": [
        0,
        0,
        0
      ],
      "name": "Loewe_O_Material_u1_v1",
      "pbrMetallicRoughness": {
        "baseColorFactor": [
          1,
          1,
          1,
          1
        ],
        "baseColorTexture": {
          "index": 0,
          "texCoord": 0
        },
        "metallicFactor": 0,
        "roughnessFactor": 1
      }
    }
  ],
  "meshes": [
    {
      "primitives": [
        {
          "attributes": {
            "NORMAL": 1,
            "POSITION": 0,
            "TEXCOORD_0": 2
          },
          "indices": 3,
          "material": 0,
          "mode": 4
        }
      ]
    },
    {
      "primitives": [
        {
          "attributes": {
            "NORMAL": 5,
            "POSITION": 4,
            "TEXCOORD_0": 6
          },
          "indices": 7,
          "material": 0,
          "mode": 4
        }
      ]
    },
    {
      "primitives": [
        {
          "attributes": {
            "NORMAL": 9,
            "POSITION": 8,
            "TEXCOORD_0": 10
          },
          "indices": 11,
          "material": 0,
          "mode": 4
        }
      ]
    },
    {
      "primitives": [
        {
          "attributes": {
            "NORMAL": 13,
            "POSITION": 12,
            "TEXCOORD_0": 14
          },
          "indices": 15,
          "material": 0,
          "mode": 4
        }
      ]
    },
    {
      "primitives": [
        {
          "attributes": {
            "NORMAL": 17,
            "POSITION": 16,
            "TEXCOORD_0": 18
          },
          "indices": 19,
          "material": 0,
          "mode": 4
        }
      ]
    },
    {
      "primitives": [
        {
          "attributes": {
            "NORMAL": 21,
            "POSITION": 20,
            "TEXCOORD_0": 22
          },
          "indices": 23,
          "material": 0,
          "mode": 4
        }
      ]
    },
    {
      "primitives": [
        {
          "attributes": {
            "NORMAL": 25,
            "POSITION": 24,
            "TEXCOORD_0": 26
          },
          "indices": 27,
          "material": 0,
          "mode": 4
        }
      ]
    },
    {
      "primitives": [
        {
          "attributes": {
            "NORMAL": 29,
            "POSITION": 28,
            "TEXCOORD_0": 30
          },
          "indices": 31,
          "material": 0,
          "mode": 4
        }
      ]
    }
  ],
  "nodes": [
    {
      "children": [
        1
      ],
      "name": "RootNode (gltf orientation matrix)",
      "rotation": [
        -0.70710678118654746,
        -0,
        -0,
        0.70710678118654757
      ]
    },
    {
      "children": [
        2
      ],
      "matrix": [
        -0.10510462117586705,
        0.00019047565414958157,
        2.4525883252466026e-05,
        0,
        -2.0996991896319e-05,
        0.0019449501208627651,
        -0.10508679800745258,
        0,
        -0.00019089688410058991,
        -0.10508662885963282,
        -0.001944908812772525,
        0,
        2.9300248622894287,
        -17.555818557739258,
        -17.881383895874023,
        1
      ],
      "name": "RootNode (model correction matrix)"
    },
    {
      "children": [
        3,
        4,
        5,
        6,
        7,
        8,
        9,
        10
      ],
      "name": "Loewe_C.obj.cleaner.materialmerger.gles"
    },
    {
      "mesh": 0,
      "name": ""
    },
    {
      "mesh": 1,
      "name": ""
    },
    {
      "mesh": 2,
      "name": ""
    },
    {
      "mesh": 3,
      "name": ""
    },
    {
      "mesh": 4,
      "name": ""
    },
    {
      "mesh": 5,
      "name": ""
    },
    {
      "mesh": 6,
      "name": ""
    },
    {
      "mesh": 7,
      "name": ""
    }
  ],
  "samplers": [
    {
      "magFilter": 9729,
      "minFilter": 9987,
      "wrapS": 10497,
      "wrapT": 10497
    }
  ],
  "scene": 0,
  "scenes": [
    {
      "name": "OSG_Scene",
      "nodes": [
        0
      ]
    }
  ],
  "textures": [
    {
      "sampler": 0,
      "source": 0
    }
  ]
}

